<svg xmlns="http://www.w3.org/2000/svg" viewBox="0 0 813.676 813.676">

        <g id="Moon">
          <g id="Glow">
            <circle class="glow" cx="406.838" cy="406.838" r="406.838"/>
            <circle class="glow" cx="407.616" cy="405.282" r="369.499"/>
            <circle class="glow" cx="407.229" cy="400.634" r="335.216"/>
          </g>
          <circle id="Body" class="body" cx="407.616" cy="405.282" r="298.192"/>
          <g id="Craters">
            <g>
              <ellipse class="crater" cx="540.291" cy="220.172" rx="21.404" ry="28.056" transform="translate(-22.299 374.711) rotate(-37.531)"/>
              <path class="crater-shadow" d="M555.956,205.524c-10.106-11.722-25.312-14.667-33.963-6.577a16.359,16.359,0,0,0-1.2,1.258c8.812-6.661,23.024-3.458,32.632,7.686s11.141,26.2,3.836,34.614a16.707,16.707,0,0,0,1.331-1.109C567.242,233.307,566.062,217.246,555.956,205.524Z"/>
            </g>
            <g>
              <ellipse class="crater" cx="564.178" cy="334.142" rx="52.272" ry="63.693" transform="translate(-91.52 337.062) rotate(-30.892)"/>
              <path class="crater-shadow" d="M615.46,320.892c-11.737-32.823-44.211-53.5-72.532-46.181-1.4.36-2.746.8-4.069,1.28,27.256-4.368,57.155,15.838,68.313,47.043s-.454,62.136-25.96,71.4c1.413-.227,2.822-.5,4.219-.861C613.752,386.255,627.2,353.715,615.46,320.892Z"/>
            </g>
            <g>
              <ellipse class="crater" cx="623.676" cy="261.835" rx="14.696" ry="25.094" transform="translate(-50.786 313.121) rotate(-27.122)"/>
              <path class="crater-shadow" d="M630.847,246.49c-8.742-9.7-19.039-10.687-23-2.213-.195.418-.366.855-.524,1.3,4.341-7.171,14.053-5.827,22.364,3.391s12.219,22.983,9.182,31.6a12.383,12.383,0,0,0,.635-1.178C643.465,270.917,639.589,256.187,630.847,246.49Z"/>
            </g>
            <g>
              <ellipse class="crater" cx="290.398" cy="562.984" rx="38.395" ry="46.038" transform="translate(-279.578 286.562) rotate(-36.842)"/>
              <path class="crater-shadow" d="M328.566,553.551c-8.721-23.421-32.88-38.186-53.959-32.976-1.039.257-2.044.57-3.028.912,20.285-3.106,42.527,11.322,50.819,33.589s-.362,44.33-19.347,50.929c1.052-.161,2.1-.355,3.14-.612C327.27,600.183,337.288,576.973,328.566,553.551Z"/>
            </g>
            <g>
              <ellipse class="crater" cx="320.091" cy="348.361" rx="94.442" ry="92.601" transform="matrix(0.138, -0.99, 0.99, 0.138, -69.168, 617.232)"/>
              <path class="crater-shadow" d="M318.638,253.975a91.2,91.2,0,0,0-32.968,6.908A91.514,91.514,0,0,1,306,258.151c51.155-1.1,93.275,40.268,94.078,92.4.62,40.257-23.587,75.152-58.2,89.467,41.21-10.346,71.531-48.647,70.838-93.643C411.914,294.244,369.794,252.876,318.638,253.975Z"/>
            </g>
            <g>
              <ellipse class="crater" cx="564.249" cy="528.393" rx="43.873" ry="44.745" transform="translate(-80.984 102.657) rotate(-9.703)"/>
              <path class="crater-shadow" d="M550.037,485.988a43.21,43.21,0,0,0-13.893,7.854,43.331,43.331,0,0,1,8.788-4.154c22.938-7.844,47.9,4.783,55.746,28.2a45.056,45.056,0,0,1-13.428,48.753,44.9,44.9,0,0,0,18.533-52.453C597.933,490.771,572.975,478.144,550.037,485.988Z"/>
            </g>
          </g>
          <path id="Shadow" class="shadow" d="M655.993,571.614c-53.555,79.541-144.427,131.861-247.525,131.861-164.687,0-298.192-133.5-298.192-298.193,0-38.6,13.864-113.294,50.266-166.987,38.333-56.542,99.958-91.5,127.371-106.072,0,0,23.429,54.1-54.1,121.407-118.3,102.7,13.632,164.432,28.116,209.587,18.181,56.684-54.088,89.022-4.26,138.02,51.118,50.267,115.017-34.931,164.006-31.949,65.569,3.991,90.794,60.3,157.189,39.617"/>
          <circle id="Inner_shadow" data-name="Inner shadow" class="inner_shadow" cx="407.299" cy="405.351" r="290.524"/>
        </g>
  
</svg>
