<svg xmlns="http://www.w3.org/2000/svg" viewBox="0 0 27.409 26.091">
  <defs>
    <style>
      .cls-1 {
        fill: #155d6f;
      }

      .cls-2, .cls-3 {
        fill: none;
      }

      .cls-3 {
        stroke: #1b1b1b;
        stroke-linecap: round;
        stroke-linejoin: round;
        stroke-width: 0.5px;
      }
    </style>
  </defs>
  <title>home</title>
  <g id="Layer_2" data-name="Layer 2">
    <g id="Layer_1-2" data-name="Layer 1">
      <g>
        <g>
          <path class="cls-1" d="M22.659,11.587v8a1.5,1.5,0,0,1-1.5,1.5H18.121a1.5,1.5,0,0,1-1.5-1.5V16.671a2.212,2.212,0,0,0-2.212-2.212h0A2.212,2.212,0,0,0,12.2,16.671v2.915a1.5,1.5,0,0,1-1.5,1.5H7.659a1.5,1.5,0,0,1-1.5-1.5v-8A1.5,1.5,0,0,1,6.747,10.4L13.5,5.224a1.5,1.5,0,0,1,1.825,0l6.75,5.172A1.5,1.5,0,0,1,22.659,11.587Z"/>
          <rect class="cls-2" x="2.409" y="1" width="24" height="24"/>
        </g>
        <g>
          <path class="cls-3" d="M23.659,10.587v8a1.5,1.5,0,0,1-1.5,1.5H19.121a1.5,1.5,0,0,1-1.5-1.5V15.671a2.212,2.212,0,0,0-2.212-2.212h0A2.212,2.212,0,0,0,13.2,15.671v2.915a1.5,1.5,0,0,1-1.5,1.5H8.659a1.5,1.5,0,0,1-1.5-1.5v-8A1.5,1.5,0,0,1,7.747,9.4L14.5,4.224a1.5,1.5,0,0,1,1.825,0L23.072,9.4A1.5,1.5,0,0,1,23.659,10.587Z"/>
          <rect class="cls-2" x="3.409" width="24" height="24"/>
        </g>
        <rect class="cls-2" y="2.091" width="24" height="24"/>
      </g>
    </g>
  </g>
</svg>
