<svg xmlns="http://www.w3.org/2000/svg" viewBox="0 0 24 24">
  <defs>
    <style>
      .cls-1, .cls-2 {
        fill: none;
      }

      .cls-1 {
        stroke: #1a1a1a;
        stroke-linecap: round;
        stroke-linejoin: round;
        stroke-width: 1.5px;
      }
    </style>
  </defs>
  <title>Asset 4</title>
  <g id="Layer_2" data-name="Layer 2">
    <g id="Line_Icons" data-name="Line Icons">
      <g>
        <g>
          <circle class="cls-1" cx="11.999" cy="12" r="2.431"/>
          <path class="cls-1" d="M19.454,13.13l.023.013a1.205,1.205,0,0,1,.441,1.648L18.375,17.46a1.205,1.205,0,0,1-1.647.441l0,0a1.189,1.189,0,0,0-1.2,0l-.168.1a1.19,1.19,0,0,0-.607,1.042v0a1.206,1.206,0,0,1-1.206,1.206H10.453a1.206,1.206,0,0,1-1.206-1.206v0A1.187,1.187,0,0,0,8.645,18c-.056-.031-.111-.063-.166-.1A1.187,1.187,0,0,0,7.273,17.9h0a1.205,1.205,0,0,1-1.647-.441L4.082,14.789a1.206,1.206,0,0,1,.439-1.647l.021-.012a1.205,1.205,0,0,0,.6-1.048v-.164a1.205,1.205,0,0,0-.6-1.048l-.021-.012a1.206,1.206,0,0,1-.439-1.647L5.626,6.54A1.205,1.205,0,0,1,7.273,6.1h0a1.187,1.187,0,0,0,1.206-.006c.055-.033.11-.065.166-.1a1.187,1.187,0,0,0,.6-1.039v0A1.206,1.206,0,0,1,10.453,3.75h3.088a1.206,1.206,0,0,1,1.206,1.206v0A1.19,1.19,0,0,0,15.354,6l.168.1a1.189,1.189,0,0,0,1.2,0l0,0a1.205,1.205,0,0,1,1.647.441l1.543,2.669a1.205,1.205,0,0,1-.441,1.648l-.023.013a1.208,1.208,0,0,0-.6,1.049q0,.081,0,.162A1.208,1.208,0,0,0,19.454,13.13Z"/>
        </g>
        <rect class="cls-2" width="24" height="24"/>
      </g>
    </g>
  </g>
</svg>
